<?xml version="1.0" encoding="UTF-8"?>
<!DOCTYPE svg PUBLIC "-//W3C//DTD SVG 1.1//EN" "http://www.w3.org/Graphics/SVG/1.1/DTD/svg11.dtd">
<!-- Creator: CorelDRAW 2018 (64-Bit) -->
<svg xmlns="http://www.w3.org/2000/svg" xml:space="preserve" width="5.334mm" height="8.2972mm" version="1.1" style="shape-rendering:geometricPrecision; text-rendering:geometricPrecision; image-rendering:optimizeQuality; fill-rule:evenodd; clip-rule:evenodd"
viewBox="0 0 533.4 829.72"
 xmlns:xlink="http://www.w3.org/1999/xlink">
 <defs>
  <style type="text/css">
   <![CDATA[
    .fil0 {fill:#637B3C;fill-rule:nonzero}
   ]]>
  </style>
 </defs>
 <g id="Слой_x0020_1">
  <metadata id="CorelCorpID_0Corel-Layer"/>
  <g>
   <path class="fil0" d="M47.19 133.67c-14.53,-11.76 -16.77,-33.1 -5.01,-47.63 11.76,-14.53 33.1,-16.77 47.63,-5.01l-42.62 52.64zm396.39 320.89l-396.39 -320.89 42.62 -52.64 396.39 320.89 -1.13 53.52 -41.49 -0.88zm42.62 -52.64l33.95 27.49 -35.08 26.03 1.13 -53.52zm-437.88 293.25l396.39 -294.13 40.36 54.4 -396.39 294.13 -40.36 -54.4zm40.36 54.4c-15.02,11.14 -36.24,8 -47.38,-7.02 -11.14,-15.02 -8,-36.24 7.02,-47.38l40.36 54.4z"/>
  </g>
 </g>
</svg>
